# xmcd
#
# Track frame offsets: 
#        150
#        14265
#        28881
#        47718
#        65742
#        81535
#        100718
#        113646
#        130834
#        146727
#        169746
#        181945
#
# Disc length: 2634 seconds
#
# Revision: 0
# Processed by: cddbd v1.5.2PL0 Copyright (c) Steve Scherf et al.
# Submitted via: ExactAudioCopy v0.95b4
#
DISCID=a50a480c
DTITLE=John Denver - Purely...
DYEAR=2008
DGENRE=Country
TTITLE0=Annie's Song
TTITLE1=Take Me Home Country Roads
TTITLE2=Rocky Mountain High
TTITLE3=Windsong
TTITLE4=Higher Ground
TTITLE5=To The Wild Country
TTITLE6=American Child
TTITLE7=Calypso
TTITLE8=Two Different Directions
TTITLE9=Sunshine On My Shoulders
TTITLE10=Alaska and Me
TTITLE11=Rocky Mountain Suite
EXTD=
EXTT0=
EXTT1=
EXTT2=
EXTT3=
EXTT4=
EXTT5=
EXTT6=
EXTT7=
EXTT8=
EXTT9=
EXTT10=
EXTT11=
PLAYORDER=
